<?xml version="1.0" encoding="UTF-8" standalone="no"?>
<!DOCTYPE svg PUBLIC "-//W3C//DTD SVG 1.1//EN" "http://www.w3.org/Graphics/SVG/1.1/DTD/svg11.dtd">
<svg xmlns="http://www.w3.org/2000/svg" version="1.1" viewBox="0.00 0.00 103.00 102.00">
<g stroke-width="2.00" fill="none" stroke-linecap="butt">
<path stroke="#306357" vector-effect="non-scaling-stroke" d="
  M 88.85 53.00
  A 35.85 35.85 0.0 0 0 53.00 17.15
  A 35.85 35.85 0.0 0 0 17.15 53.00
  A 35.85 35.85 0.0 0 0 53.00 88.85
  A 35.85 35.85 0.0 0 0 88.85 53.00"
/>
<path stroke="#a5d7cb" vector-effect="non-scaling-stroke" d="
  M 57.73 42.75
  L 69.49 42.74
  Q 69.72 42.74 69.72 42.51
  L 69.70 34.98
  Q 69.70 34.75 69.48 34.75
  L 36.60 34.75
  Q 36.32 34.75 36.32 35.03
  L 36.31 42.53
  Q 36.31 42.74 36.53 42.74
  L 48.16 42.75
  Q 48.56 42.75 48.57 43.16
  L 48.59 47.88
  A 0.42 0.42 0.0 0 1 48.17 48.30
  Q 41.12 48.32 33.94 50.58
  Q 32.20 51.12 31.27 52.60
  Q 31.01 53.01 31.27 53.43
  Q 32.17 54.83 33.81 55.37
  Q 40.80 57.67 47.87 57.64
  Q 48.57 57.64 48.57 58.35
  L 48.56 74.53
  Q 48.56 75.00 49.03 75.00
  L 56.99 75.00
  Q 57.48 75.00 57.48 74.51
  L 57.47 58.26
  Q 57.47 57.66 58.07 57.66
  C 61.61 57.66 72.46 56.83 74.64 53.49
  Q 74.95 53.02 74.62 52.56
  C 72.16 49.09 61.76 48.30 57.74 48.26
  A 0.28 0.27 1.1 0 1 57.47 47.99
  L 57.47 43.01
  A 0.26 0.26 0.0 0 1 57.73 42.75"
/>
<path stroke="#a5d7cb" vector-effect="non-scaling-stroke" d="
  M 49.79 54.81
  Q 48.54 54.80 48.55 53.54
  L 48.59 49.37
  A 0.63 0.63 0.0 0 0 47.91 48.73
  Q 42.79 49.09 37.41 50.09
  Q 35.36 50.47 33.70 51.66
  A 1.05 1.05 0.0 0 0 33.79 53.43
  Q 36.75 55.11 40.56 55.57
  Q 53.06 57.08 65.63 55.55
  Q 69.51 55.08 72.39 53.29
  A 0.78 0.78 0.0 0 0 72.54 52.09
  Q 71.17 50.65 69.21 50.25
  Q 63.85 49.17 57.90 48.65
  A 0.39 0.39 0.0 0 0 57.48 49.04
  L 57.47 53.57
  Q 57.46 54.85 56.18 54.84
  L 49.79 54.81"
/>
</g>
<path fill="#151717" d="
  M 0.00 0.00
  L 103.00 0.00
  L 103.00 102.00
  L 0.00 102.00
  L 0.00 0.00
  Z
  M 88.85 53.00
  A 35.85 35.85 0.0 0 0 53.00 17.15
  A 35.85 35.85 0.0 0 0 17.15 53.00
  A 35.85 35.85 0.0 0 0 53.00 88.85
  A 35.85 35.85 0.0 0 0 88.85 53.00
  Z"
/>
<path fill="#4bae96" d="
  M 88.85 53.00
  A 35.85 35.85 0.0 0 1 53.00 88.85
  A 35.85 35.85 0.0 0 1 17.15 53.00
  A 35.85 35.85 0.0 0 1 53.00 17.15
  A 35.85 35.85 0.0 0 1 88.85 53.00
  Z
  M 57.73 42.75
  L 69.49 42.74
  Q 69.72 42.74 69.72 42.51
  L 69.70 34.98
  Q 69.70 34.75 69.48 34.75
  L 36.60 34.75
  Q 36.32 34.75 36.32 35.03
  L 36.31 42.53
  Q 36.31 42.74 36.53 42.74
  L 48.16 42.75
  Q 48.56 42.75 48.57 43.16
  L 48.59 47.88
  A 0.42 0.42 0.0 0 1 48.17 48.30
  Q 41.12 48.32 33.94 50.58
  Q 32.20 51.12 31.27 52.60
  Q 31.01 53.01 31.27 53.43
  Q 32.17 54.83 33.81 55.37
  Q 40.80 57.67 47.87 57.64
  Q 48.57 57.64 48.57 58.35
  L 48.56 74.53
  Q 48.56 75.00 49.03 75.00
  L 56.99 75.00
  Q 57.48 75.00 57.48 74.51
  L 57.47 58.26
  Q 57.47 57.66 58.07 57.66
  C 61.61 57.66 72.46 56.83 74.64 53.49
  Q 74.95 53.02 74.62 52.56
  C 72.16 49.09 61.76 48.30 57.74 48.26
  A 0.28 0.27 1.1 0 1 57.47 47.99
  L 57.47 43.01
  A 0.26 0.26 0.0 0 1 57.73 42.75
  Z"
/>
<path fill="#ffffff" d="
  M 57.73 42.75
  A 0.26 0.26 0.0 0 0 57.47 43.01
  L 57.47 47.99
  A 0.28 0.27 1.1 0 0 57.74 48.26
  C 61.76 48.30 72.16 49.09 74.62 52.56
  Q 74.95 53.02 74.64 53.49
  C 72.46 56.83 61.61 57.66 58.07 57.66
  Q 57.47 57.66 57.47 58.26
  L 57.48 74.51
  Q 57.48 75.00 56.99 75.00
  L 49.03 75.00
  Q 48.56 75.00 48.56 74.53
  L 48.57 58.35
  Q 48.57 57.64 47.87 57.64
  Q 40.80 57.67 33.81 55.37
  Q 32.17 54.83 31.27 53.43
  Q 31.01 53.01 31.27 52.60
  Q 32.20 51.12 33.94 50.58
  Q 41.12 48.32 48.17 48.30
  A 0.42 0.42 0.0 0 0 48.59 47.88
  L 48.57 43.16
  Q 48.56 42.75 48.16 42.75
  L 36.53 42.74
  Q 36.31 42.74 36.31 42.53
  L 36.32 35.03
  Q 36.32 34.75 36.60 34.75
  L 69.48 34.75
  Q 69.70 34.75 69.70 34.98
  L 69.72 42.51
  Q 69.72 42.74 69.49 42.74
  L 57.73 42.75
  Z
  M 49.79 54.81
  Q 48.54 54.80 48.55 53.54
  L 48.59 49.37
  A 0.63 0.63 0.0 0 0 47.91 48.73
  Q 42.79 49.09 37.41 50.09
  Q 35.36 50.47 33.70 51.66
  A 1.05 1.05 0.0 0 0 33.79 53.43
  Q 36.75 55.11 40.56 55.57
  Q 53.06 57.08 65.63 55.55
  Q 69.51 55.08 72.39 53.29
  A 0.78 0.78 0.0 0 0 72.54 52.09
  Q 71.17 50.65 69.21 50.25
  Q 63.85 49.17 57.90 48.65
  A 0.39 0.39 0.0 0 0 57.48 49.04
  L 57.47 53.57
  Q 57.46 54.85 56.18 54.84
  L 49.79 54.81
  Z"
/>
<path fill="#4bae96" d="
  M 57.47 53.57
  L 57.48 49.04
  A 0.39 0.39 0.0 0 1 57.90 48.65
  Q 63.85 49.17 69.21 50.25
  Q 71.17 50.65 72.54 52.09
  A 0.78 0.78 0.0 0 1 72.39 53.29
  Q 69.51 55.08 65.63 55.55
  Q 53.06 57.08 40.56 55.57
  Q 36.75 55.11 33.79 53.43
  A 1.05 1.05 0.0 0 1 33.70 51.66
  Q 35.36 50.47 37.41 50.09
  Q 42.79 49.09 47.91 48.73
  A 0.63 0.63 0.0 0 1 48.59 49.37
  L 48.55 53.54
  Q 48.54 54.80 49.79 54.81
  L 56.18 54.84
  Q 57.46 54.85 57.47 53.57
  Z"
/>
</svg>
